<svg xmlns="http://www.w3.org/2000/svg" xmlns:xlink="http://www.w3.org/1999/xlink" id="Layer_1" x="0px" y="0px" viewBox="0 0 464 120" style="enable-background:new 0 0 464 120;" xml:space="preserve"> <style type="text/css"> .st0{fill:#FFFFFF;} .st1{fill:#0088CE;} .st2{fill:#00A8E4;} .st3{fill:#BDDA57;} .st4{fill:#68CEF2;} </style> <path class="st0" d="M172.3,84.5l-23.4-22.1c-0.5-0.5-1.3-0.5-1.9-0.1l-6,4.7c-0.3,0.3-0.5,0.6-0.5,1.1v15.5c0,0.8-0.6,1.4-1.4,1.4 c0,0,0,0,0,0h-4.9c-0.4,0-0.7-0.1-1-0.4c-0.3-0.3-0.4-0.6-0.4-1V37.7c0-0.4,0.2-0.7,0.4-1c0.3-0.3,0.6-0.4,1-0.4h4.8 c0.8,0,1.4,0.6,1.4,1.4c0,0,0,0,0,0V57c0,0.4,0.1,0.7,0.4,1c0.3,0.3,0.6,0.4,1,0.4c0.3,0,0.6-0.1,0.9-0.3l28.7-22.3 c0.5-0.3,1.1-0.4,1.6-0.1l2.7,1.8c0.6,0.4,0.8,1.3,0.4,1.9c-0.1,0.1-0.2,0.3-0.4,0.3l-21.6,16.8c-0.6,0.5-0.7,1.3-0.3,1.9 c0,0.1,0.1,0.1,0.2,0.2l25.1,23.8c0.6,0.5,0.6,1.4,0.1,1.9c0,0,0,0,0,0c-0.3,0.3-0.6,0.4-1,0.4h-5.2 C172.9,84.8,172.5,84.7,172.3,84.5L172.3,84.5z M226.7,37l23.9,45.6c0.3,0.7,0.1,1.5-0.5,1.8c0,0,0,0,0,0h-0.1 c-0.2,0.1-0.3,0.1-0.4,0.2l-4.6,0.5c-0.6,0.1-1.1-0.2-1.4-0.7l-6.5-12.7c-0.2-0.5-0.7-0.7-1.2-0.7h-26c-0.5,0-1,0.3-1.2,0.8 L202.6,84c-0.2,0.5-0.7,0.8-1.2,0.8H197c-0.8,0-1.4-0.6-1.4-1.4c0,0,0,0,0,0l0,0c0-0.2,0.1-0.4,0.2-0.6l23-45.8 c0.2-0.5,0.7-0.8,1.2-0.8h5.6C226.1,36.4,226.5,36.6,226.7,37L226.7,37z M221.4,46.1l-9.2,18.3c-0.3,0.7-0.1,1.5,0.5,1.8 c0,0,0,0,0,0h0.1c0.2,0.1,0.4,0.2,0.6,0.2h18.8c0.4,0,0.7-0.1,1-0.4c0.3-0.3,0.4-0.6,0.4-1c0-0.2-0.1-0.4-0.2-0.6l-9.6-18.3 c-0.3-0.7-1.1-1-1.8-0.6c0,0,0,0,0,0h-0.1C221.7,45.6,221.5,45.9,221.4,46.1L221.4,46.1z"></path> <path id="B" class="st0" d="M268.9,83.4V37.7c0-0.8,0.6-1.4,1.4-1.4c0,0,0,0,0,0h4.1c0.4,0,0.7,0.2,1,0.5l31.7,32.5l1.5,1.8 c0.4,0.6,1.3,0.7,1.9,0.2c0,0,0.1,0,0.1-0.1c0.3-0.3,0.5-0.7,0.5-1.1V37.7c0-0.8,0.6-1.4,1.4-1.4c0,0,0,0,0,0h4.9 c0.8,0,1.4,0.6,1.4,1.4c0,0,0,0,0,0v45.8c0,0.8-0.6,1.4-1.4,1.4c0,0,0,0,0,0h-4.3c-0.4,0-0.7-0.2-1-0.4l-33-34.6 c-0.5-0.6-1.3-0.7-1.9-0.3c-0.3,0.3-0.5,0.7-0.5,1.2v32.7c0,0.4-0.1,0.7-0.4,1c-0.3,0.3-0.6,0.4-1,0.4h-4.8 C269.6,84.9,268.9,84.3,268.9,83.4C268.9,83.5,268.9,83.5,268.9,83.4z"></path> <path class="st0" d="M343.1,83.4V37.7c0-0.4,0.2-0.7,0.4-1c0.3-0.3,0.6-0.4,1-0.4h4.8c0.4,0,0.7,0.1,1,0.4c0.3,0.3,0.4,0.6,0.4,1 v45.8c0,0.4-0.1,0.7-0.4,1c-0.3,0.3-0.6,0.4-1,0.4h-4.8c-0.4,0-0.7-0.1-1-0.4C343.2,84.2,343.1,83.8,343.1,83.4z M374.1,83.4V37.7 c0-0.8,0.6-1.4,1.3-1.4h4.1c0.4,0,0.7,0.2,1,0.5l31.7,32.5l1.5,1.8c0.5,0.6,1.3,0.7,1.9,0.2c0,0,0,0,0.1,0c0.3-0.3,0.5-0.7,0.5-1.1 V37.7c0-0.8,0.6-1.4,1.4-1.4c0,0,0,0,0,0h4.9c0.8,0,1.4,0.6,1.4,1.4c0,0,0,0,0,0v45.8c0,0.8-0.6,1.4-1.4,1.4h-4.2 c-0.4,0-0.7-0.2-1-0.4l-33.1-34.6c-0.5-0.6-1.3-0.7-1.9-0.3c-0.3,0.3-0.5,0.7-0.5,1.2v32.7c0,0.4-0.1,0.7-0.4,1 c-0.3,0.3-0.6,0.4-1,0.4h-4.9c-0.4,0-0.7-0.1-1-0.4C374.3,84.2,374.1,83.8,374.1,83.4z M447.4,83.4V37.7c0-0.4,0.1-0.7,0.4-1 c0.3-0.3,0.6-0.4,1-0.4h4.8c0.8,0,1.4,0.6,1.4,1.4v45.8c0,0.8-0.6,1.4-1.4,1.4c0,0,0,0,0,0h-4.9c-0.4,0-0.7-0.1-1-0.4 C447.5,84.2,447.4,83.8,447.4,83.4L447.4,83.4z"></path> <path d="M172.3,84.4l-23.4-22.1c-0.5-0.5-1.3-0.5-1.9-0.1l-6,4.7c-0.3,0.3-0.5,0.6-0.5,1.1v15.5c0,0.8-0.6,1.4-1.4,1.4c0,0,0,0,0,0 h-4.9c-0.4,0-0.7-0.1-1-0.4c-0.3-0.3-0.4-0.6-0.4-1V37.7c0-0.4,0.2-0.7,0.4-1c0.3-0.3,0.6-0.4,1-0.4h4.8c0.8,0,1.4,0.6,1.4,1.4V57 c0,0.4,0.1,0.7,0.4,1c0.3,0.3,0.6,0.4,1,0.4c0.3,0,0.6-0.1,0.9-0.3l28.7-22.3c0.5-0.3,1.1-0.4,1.6-0.1l2.7,1.8 c0.6,0.4,0.8,1.3,0.4,1.9c-0.1,0.1-0.2,0.3-0.4,0.3l-21.6,16.8c-0.6,0.5-0.7,1.3-0.3,1.9l0.2,0.2l25.1,23.8c0.6,0.5,0.6,1.4,0.1,1.9 c0,0,0,0,0,0c-0.3,0.3-0.6,0.4-1,0.4h-5.2C172.8,84.8,172.5,84.7,172.3,84.4L172.3,84.4z M226.7,37.1l23.9,45.6 c0.3,0.7,0.1,1.5-0.5,1.8c0,0,0,0,0,0h-0.1c-0.2,0.1-0.3,0.1-0.4,0.2l-4.6,0.5c-0.6,0.1-1.1-0.2-1.4-0.7l-6.5-12.6 c-0.3-0.4-0.7-0.7-1.2-0.7h-26c-0.5,0-1,0.3-1.2,0.8L202.6,84c-0.2,0.5-0.7,0.8-1.2,0.8H197c-0.8,0-1.4-0.6-1.4-1.4c0,0,0,0,0,0l0,0 c0-0.2,0.1-0.4,0.2-0.6l23-45.8c0.2-0.5,0.7-0.8,1.2-0.8h5.6C226.1,36.3,226.6,36.6,226.7,37.1L226.7,37.1z M221.4,46.1l-9.2,18.3 c-0.3,0.7-0.1,1.5,0.5,1.8c0,0,0,0,0,0h0.1c0.2,0.1,0.4,0.2,0.6,0.2h18.8c0.4,0,0.7-0.1,1-0.4c0.3-0.3,0.4-0.6,0.4-1 c0-0.2-0.1-0.4-0.2-0.6l-9.6-18.3c-0.3-0.7-1.1-1-1.8-0.6c0,0,0,0,0,0h-0.1C221.7,45.6,221.5,45.9,221.4,46.1L221.4,46.1z"></path> <path id="B-2" d="M268.9,83.4V37.7c0-0.8,0.6-1.4,1.4-1.4c0,0,0,0,0,0h4.1c0.4,0,0.7,0.2,1,0.5l31.7,32.5l1.5,1.8 c0.4,0.6,1.3,0.7,1.9,0.2c0,0,0.1,0,0.1-0.1c0.3-0.3,0.5-0.7,0.5-1.1V37.7c0-0.8,0.6-1.4,1.4-1.4c0,0,0,0,0,0h4.9 c0.8,0,1.4,0.6,1.4,1.4c0,0,0,0,0,0v45.8c0,0.8-0.6,1.4-1.4,1.4c0,0,0,0,0,0h-4.3c-0.4,0-0.7-0.2-1-0.4l-33-34.6 c-0.5-0.6-1.3-0.7-1.9-0.3c-0.3,0.3-0.5,0.7-0.5,1.2v32.7c0,0.4-0.1,0.7-0.4,1c-0.3,0.3-0.6,0.4-1,0.4h-4.8 C269.6,84.9,268.9,84.3,268.9,83.4C268.9,83.5,268.9,83.5,268.9,83.4z"></path> <path d="M343.1,83.4V37.7c0-0.4,0.2-0.7,0.4-1c0.3-0.3,0.6-0.4,1-0.4h4.8c0.4,0,0.7,0.1,1,0.4c0.3,0.3,0.4,0.6,0.4,1v45.8 c0,0.4-0.1,0.7-0.4,1c-0.3,0.3-0.6,0.4-1,0.4h-4.8c-0.4,0-0.7-0.1-1-0.4C343.2,84.2,343.1,83.8,343.1,83.4z M374.1,83.4V37.7 c0-0.8,0.6-1.4,1.3-1.4h4.1c0.4,0,0.7,0.2,1,0.5l31.7,32.5l1.5,1.8c0.5,0.6,1.3,0.7,1.9,0.2c0,0,0,0,0.1,0c0.3-0.3,0.5-0.7,0.5-1.1 V37.7c0-0.8,0.6-1.4,1.4-1.4c0,0,0,0,0,0h4.9c0.8,0,1.4,0.6,1.4,1.4c0,0,0,0,0,0v45.8c0,0.8-0.6,1.4-1.4,1.4h-4.2 c-0.4,0-0.7-0.2-1-0.4l-33.1-34.6c-0.5-0.6-1.3-0.7-1.9-0.3c-0.3,0.3-0.5,0.7-0.5,1.2v32.7c0,0.4-0.1,0.7-0.4,1 c-0.3,0.3-0.6,0.4-1,0.4h-4.9C374.8,84.8,374.2,84.2,374.1,83.4z M447.4,83.4V37.7c0-0.8,0.6-1.4,1.4-1.4c0,0,0,0,0,0h4.8 c0.8,0,1.4,0.6,1.4,1.4v45.8c0,0.8-0.6,1.4-1.4,1.4c0,0,0,0,0,0h-4.9C448,84.9,447.3,84.2,447.4,83.4 C447.3,83.5,447.3,83.5,447.4,83.4L447.4,83.4z"></path> <path class="st1" d="M12.2,64.3H42c4.3,0,7.7,3.5,7.7,7.7c0,0,0,0,0,0v29.9c0,4.3-3.4,7.7-7.7,7.7c0,0,0,0,0,0h-0.3 c-4.2,0-7.7-3.4-7.7-7.7c0,0,0,0,0,0v-22H12.2c-4.3-0.2-7.6-3.8-7.5-8C4.8,67.7,8.1,64.5,12.2,64.3L12.2,64.3z"></path> <path class="st2" d="M95.5,56.6H65.7c-4.2,0-7.7-3.4-7.7-7.7c0,0,0,0,0-0.1V19.1c0-4.2,3.4-7.7,7.7-7.7H66c4.2,0,7.7,3.4,7.7,7.7 c0,0,0,0,0,0v22.1h21.8c4.3,0.2,7.6,3.7,7.4,8C102.8,53.2,99.6,56.5,95.5,56.6z"></path> <path class="st3" d="M7.2,26.2L88,107c3.4,3.4,8.9,3.4,12.3,0l0,0c3.4-3.4,3.4-8.9,0-12.3l-80.7-81c-3.4-3.3-8.7-3.4-12.2-0.2 c-3.6,3.3-3.8,8.8-0.6,12.4c0,0,0.1,0.1,0.1,0.1L7.2,26.2z"></path> <path class="st2" d="M41.8,64.3H42c4.3,0.2,7.6,3.7,7.4,8c-0.1,4-3.4,7.3-7.4,7.4h-7.9c-0.1,0-0.1,0-0.1-0.1V72 C34,67.7,37.5,64.3,41.8,64.3L41.8,64.3z"></path> <path class="st4" d="M66,56.6h-0.2c-4.3-0.2-7.6-3.7-7.4-8c0.1-4,3.4-7.3,7.4-7.4h8v7.7C73.8,53.2,70.3,56.7,66,56.6z"></path> </svg>